<svg xmlns="http://www.w3.org/2000/svg" width="14" height="14" viewBox="0 0 14 14"><g><g><path fill="#fff" d="M14.099 2.575v9.797c0 .957-.741 1.727-1.63 1.727H1.63C.726 14.099 0 13.314 0 12.372V2.575C0 1.617.74.848 1.63.848h1.943V.58c0-.33.237-.581.548-.581.312 0 .55.267.55.58v.268h4.743V.58c0-.314.222-.581.534-.581.311 0 .548.267.548.58v.268h1.957c.905 0 1.631.785 1.646 1.727zM1.082 2.59v1.161h11.95V2.591c0-.33-.252-.581-.549-.581h-1.957v.267c0 .33-.237.58-.549.58-.311 0-.548-.266-.548-.58V2.01H4.685v.267c0 .33-.238.58-.549.58-.31 0-.548-.266-.548-.58V2.01H1.63c-.312 0-.549.25-.549.58zm11.92 9.78V4.884H1.082v7.473c0 .33.252.581.549.581h10.822a.55.55 0 0 0 .549-.565zM4.729 6.626c0 .33-.252.581-.548.581H2.743c-.312 0-.549-.266-.549-.58 0-.33.252-.581.549-.581h1.423c.311 0 .549.25.563.58zm3.573 0c0 .33-.252.581-.548.581H6.316c-.312 0-.549-.266-.549-.58 0-.33.252-.581.549-.581h1.438c.311 0 .548.25.548.58zm3.588 0c0 .33-.252.581-.549.581H9.903c-.311 0-.548-.266-.548-.58 0-.33.252-.581.548-.581h1.438c.312 0 .549.25.549.58zM4.73 8.918c0 .33-.253.58-.55.58H2.744c-.312 0-.549-.266-.549-.58 0-.33.252-.581.549-.581h1.423c.311 0 .549.267.563.58zm3.572 0c0 .33-.252.58-.548.58H6.316c-.312 0-.549-.266-.549-.58 0-.33.252-.581.549-.581h1.438c.311 0 .548.267.548.58zm3.588 0c0 .33-.252.58-.549.58H9.903c-.311 0-.548-.266-.548-.58 0-.33.252-.581.548-.581h1.438c.312 0 .549.267.549.58zm-7.16 2.308c0 .33-.253.581-.55.581H2.744c-.312 0-.549-.252-.549-.581 0-.33.252-.581.549-.581h1.423c.311 0 .563.251.563.58zm3.572 0c0 .33-.252.581-.548.581H6.316c-.312 0-.549-.252-.549-.581 0-.33.252-.581.549-.581h1.438c.311 0 .548.251.548.58zm3.588 0c0 .33-.252.581-.549.581H9.903c-.311 0-.548-.252-.548-.581 0-.33.252-.581.548-.581h1.438c.312 0 .549.251.549.58z"/></g></g></svg>