<svg xmlns="http://www.w3.org/2000/svg" width="19" height="12" viewBox="0 0 19 12"><g><g><path fill="#fff" d="M18.868 5.601a.668.668 0 0 1 0 .798c-.043.057-1.053 1.412-2.691 2.78-.97.809-1.962 1.456-2.948 1.923-1.26.596-2.515.898-3.73.898-1.215 0-2.47-.302-3.73-.898-.985-.467-1.977-1.114-2.947-1.924C1.183 7.811.173 6.456.13 6.398a.668.668 0 0 1 0-.797c.042-.056 1.052-1.411 2.69-2.78.971-.809 1.963-1.456 2.949-1.923C7.03.302 8.284 0 9.5 0c1.214 0 2.47.302 3.729.898.986.467 1.978 1.114 2.948 1.924 1.638 1.368 2.648 2.723 2.69 2.78zM17.442 6C16.44 4.807 13.212 1.35 9.5 1.35 5.787 1.35 2.56 4.808 1.557 6c1.002 1.193 4.23 4.65 7.942 4.65 3.713 0 6.94-3.457 7.943-4.65zm-4.485 0c0 1.883-1.551 3.414-3.458 3.414-1.906 0-3.458-1.531-3.458-3.414 0-1.883 1.552-3.414 3.458-3.414 1.907 0 3.458 1.531 3.458 3.414zM11.59 6c0-1.138-.937-2.063-2.09-2.063-1.152 0-2.09.925-2.09 2.063 0 1.138.938 2.063 2.09 2.063 1.153 0 2.09-.925 2.09-2.063z"/></g></g></svg>