<svg xmlns="http://www.w3.org/2000/svg" width="19" height="19" viewBox="0 0 19 19"><g><g><path fill="#fff" d="M5.81 18.165a.709.709 0 0 1-.709.709h-2.51a2.15 2.15 0 0 1-2.106-2.596A9.215 9.215 0 0 1 6.63 9.413a4.812 4.812 0 0 1-1.938-3.859A4.825 4.825 0 0 1 9.515.737a4.825 4.825 0 0 1 4.822 4.817c0 1.576-.76 2.977-1.934 3.856.119.04.237.08.354.125a.708.708 0 1 1-.498 1.326 7.775 7.775 0 0 0-2.561-.493 5.119 5.119 0 0 1-.363 0c-3.604.084-6.726 2.665-7.462 6.199a.74.74 0 0 0 .15.62c.082.101.265.27.568.27H5.1c.392 0 .71.317.71.708zM9.35 8.951a8.522 8.522 0 0 1 .332 0 3.406 3.406 0 0 0 3.238-3.397c0-1.875-1.527-3.4-3.404-3.4a3.406 3.406 0 0 0-3.404 3.4c0 1.82 1.438 3.31 3.238 3.397zm9.243 6.374c.002.973-.29 1.846-.535 2.408a1.901 1.901 0 0 1-1.743 1.14H14.07a1.913 1.913 0 0 1-1.767-1.19 6.096 6.096 0 0 1-.287-.912.708.708 0 0 1 1.379-.33c.065.272.137.501.22.702a.504.504 0 0 0 .457.314h2.24a.484.484 0 0 0 .445-.29c.19-.438.417-1.111.416-1.839-.002-.721-.23-1.38-.42-1.806a.483.483 0 0 0-.45-.28h-2.213c-.21 0-.383.11-.452.288-.104.27-.176.496-.233.73a.709.709 0 0 1-.689.54H7.842l-.527.542.547.556H9.87a.709.709 0 1 1 0 1.417H7.565a.709.709 0 0 1-.506-.212l-1.24-1.261a.708.708 0 0 1-.004-.99l1.219-1.254a.71.71 0 0 1 .508-.215h4.643c.048-.142.093-.264.13-.361a1.877 1.877 0 0 1 1.774-1.198h2.217a1.91 1.91 0 0 1 1.743 1.12c.247.55.54 1.41.543 2.381zm-2.872-.702a.709.709 0 1 1 0 1.417.709.709 0 0 1 0-1.417z"/></g></g></svg>