<svg xmlns="http://www.w3.org/2000/svg" width="21" height="20" viewBox="0 0 21 20"><g><g><path fill="#fff" d="M19.823 19.477a1.64 1.64 0 0 1-1.16.478c-.42 0-.84-.16-1.16-.478L12.89 14.88a8.19 8.19 0 0 1-4.687 1.466C3.672 16.347 0 12.687 0 8.173c0-4.514 3.673-8.174 8.204-8.174 4.532 0 8.205 3.66 8.205 8.174a8.11 8.11 0 0 1-1.253 4.34l4.668 4.652a1.63 1.63 0 0 1 0 2.312zM13.75 8.173c0-3.05-2.483-5.525-5.546-5.525-3.062 0-5.546 2.474-5.546 5.525 0 3.052 2.484 5.525 5.546 5.525 3.063 0 5.546-2.473 5.546-5.525z"/></g></g></svg>