<svg xmlns="http://www.w3.org/2000/svg" width="17" height="18" viewBox="0 0 17 18"><g><g><path fill="#fff" d="M17.031 3.146v11.709a2.664 2.664 0 0 1-2.66 2.66H7.683a2.664 2.664 0 0 1-2.661-2.66v-1.331a.665.665 0 1 1 1.33 0v1.33c0 .734.597 1.331 1.331 1.331h6.686c.734 0 1.33-.597 1.33-1.33V3.145c0-.733-.596-1.33-1.33-1.33H7.684c-.734 0-1.33.597-1.33 1.33v1.331a.665.665 0 1 1-1.331 0v-1.33A2.664 2.664 0 0 1 7.684.484h6.686a2.664 2.664 0 0 1 2.661 2.662zm-8.45 6.52H.665a.665.665 0 0 1 0-1.331h7.916L7.515 7.277a.665.665 0 0 1 .937-.945l1.502 1.49c.316.314.491.733.491 1.178 0 .445-.175.864-.491 1.178l-1.502 1.49a.663.663 0 0 1-.94-.004.665.665 0 0 1 .003-.94z"/></g></g></svg>