<svg xmlns="http://www.w3.org/2000/svg" width="36" height="36" viewBox="0 0 36 36"><g><g><path fill="#fff" d="M-.008 19.983V6.789A6.605 6.605 0 0 1 6.59.192h26.386a2.2 2.2 0 0 1 2.199 2.2v17.591a2.199 2.199 0 0 1-2.199 2.199h-7.81c-3.144 3.529-3.185 7.006-3.185 10.994a2.2 2.2 0 0 1-2.198 2.2c-9.264 0-10.722-4.7-10.95-8.797H6.59a6.604 6.604 0 0 1-6.598-6.596zM30.777 4.591H26.38v13.192h4.398zM4.39 19.983a2.203 2.203 0 0 0 2.2 2.199h4.397a2.2 2.2 0 0 1 2.199 2.199c0 3.843 0 6.012 4.421 6.493a16.814 16.814 0 0 1 4.374-11.771V4.591H6.59a2.201 2.201 0 0 0-2.2 2.198z"/></g></g></svg>